<mxfile host="app.diagrams.net" modified="2023-11-03T08:50:17.603Z" agent="Mozilla/5.0 (Windows NT 10.0; Win64; x64) AppleWebKit/537.36 (KHTML, like Gecko) Chrome/118.0.0.0 Safari/537.36" version="21.7.5" etag="ytQYOPTneE_G9EoNXEZD" type="github">
  <diagram name="第 1 页" id="9Tu7uDkyitYJb0Dc1964">
    <mxGraphModel>
      <root>
        <mxCell id="0" />
        <mxCell id="1" parent="0" />
      </root>
    </mxGraphModel>
  </diagram>
</mxfile>
